<svg xmlns="http://www.w3.org/2000/svg" width="24" height="24" viewBox="0 0 24 24">
    <title>audio</title>
    <g id="audio">
        <path fill="white" d="M1,10v4a1,1,0,0,0,2,0V10A1,1,0,0,0,1,10Z" />
        <path fill="white" d="M6,6V18a1,1,0,0,0,2,0V6A1,1,0,0,0,6,6Z" />
        <path fill="white" d="M21,10v4a1,1,0,0,0,2,0V10A1,1,0,0,0,21,10Z" />
        <path fill="white" d="M16,6V18a1,1,0,0,0,2,0V6A1,1,0,0,0,16,6Z" />
        <path fill="white" d="M11,2V22a1,1,0,0,0,2,0V2A1,1,0,0,0,11,2Z" />
    </g>
</svg>