<svg id="Layer_2" data-name="Layer 2" width="500" height="100" viewBox="0 0 1500 400" fill="none"
  xmlns="http://www.w3.org/2000/svg" xmlns:xlink="http://www.w3.org/1999/xlink" viewBox="0 0 1476.21 279.11">
  <defs>
    <style>
      .cls-1 {
        fill: url(#linear-gradient-2);
      }

      .cls-1,
      .cls-2 {
        fill-rule: evenodd;
      }

      .cls-3 {
        fill: url(#linear-gradient-3);
      }

      .cls-4 {
        fill: #fff;
      }

      .cls-2 {
        fill: url(#linear-gradient);
      }
    </style>
    <linearGradient id="linear-gradient" x1="110.07" y1="128.16" x2="414.69" y2="128.16" gradientUnits="userSpaceOnUse">
      <stop offset="0" stop-color="#3fa684" />
      <stop offset="1" stop-color="#3fa6a6" />
    </linearGradient>
    <linearGradient id="linear-gradient-2" x1="39.34" y1="174.33" x2="173.7" y2="174.33"
      xlink:href="#linear-gradient" />
    <linearGradient id="linear-gradient-3" x1="0" y1="39" x2="77.99" y2="39" xlink:href="#linear-gradient" />
  </defs>
  <g id="Layer_1-2" data-name="Layer 1">
    <g>
      <g>
        <path class="cls-2"
          d="M341.95,137.73L413.44,13.94c3.56-6.17-.93-13.88-8.05-13.82l-35.9.28c-24.46.19-47,13.3-59.27,34.46l-41.86,72.25c-2.84,4.9-9.92,4.9-12.76,0l-40.75-70.33C201.67,14.03,177.38.03,151.09.02h-31.79c-7.1-.02-11.53,7.66-7.98,13.81l71.55,123.9,62.96,109.02c7.37,12.76,25.79,12.76,33.16,0l62.96-109.02Z" />
        <path class="cls-2"
          d="M47.64,99.82l4.84-2.11c30.01-13.1,65.07-1.65,81.55,26.64l37.79,64.86c2.5,4.29,2.51,9.59.02,13.89l-25.53,44.05c-7.12,12.29-24.88,12.24-31.94-.08L41.18,119.36c-4.09-7.14-1.08-16.25,6.46-19.54Z" />
        <circle class="cls-3" cx="39" cy="39" r="39" />
      </g>
      <g>
        <path class="cls-4" d="M454.01.8h19.64v93.86h-19.64V.8Z" />
        <path class="cls-4"
          d="M481.91,24.93h20.29l14.57,52.95h.39l14.38-52.95h19.84l-23.94,69.73h-21.4l-24.13-69.73Z" />
        <path class="cls-4"
          d="M560.23,116.78v-14.12c1.37.26,3.58.65,6.38.65,5.66,0,8.78-1.63,10.47-6.38l.85-2.28-24.65-69.73h20.88l14.7,54.51h.52l14.77-54.51h20.03l-23.94,70.97c-5.46,16.46-14.83,21.73-30.31,21.73-3.71,0-7.48-.46-9.69-.85Z" />
        <path class="cls-4" d="M625.14.8h21.73l21.47,73.76h.39L690.13.8h21.79l-31.42,93.86h-23.94L625.14.8Z" />
        <path class="cls-4"
          d="M708.21,59.93v-.06c0-22.18,13.08-36.36,33.5-36.36s33.24,13.86,33.24,34.93v5.85h-48c.19,11.12,6.24,17.63,15.94,17.63,7.81,0,12.55-4.29,13.92-8.2l.13-.39h17.43l-.2.72c-2.15,10.28-11.77,22.05-31.68,22.05-21.34,0-34.28-13.86-34.28-36.17ZM727.14,52.32h29.6c-1.17-9.63-6.83-14.64-14.7-14.64s-13.66,5.2-14.9,14.64Z" />
        <path class="cls-4"
          d="M784.7,24.93h18.99v12.16h.39c2.08-8.59,7.74-13.6,15.87-13.6,2.08,0,4.03.33,5.46.72v16.72c-1.56-.65-4.16-1.04-6.89-1.04-9.37,0-14.83,5.59-14.83,15.74v39.03h-18.99V24.93Z" />
        <path class="cls-4"
          d="M830.3,73.98l-.07-.59h18.54l.13.59c1.24,5.46,5.33,8.65,12.95,8.65,7.16,0,11.51-2.8,11.51-7.29v-.06c0-3.71-2.34-5.85-9.17-7.35l-11.84-2.47c-13.53-2.86-20.36-9.63-20.36-20.04v-.06c0-13.27,11.45-21.86,29.21-21.86s28.88,9.82,29.34,22.05v.65h-17.5l-.06-.52c-.65-5.01-4.75-8.78-11.77-8.78-6.57,0-10.67,2.93-10.67,7.42v.07c0,3.58,2.41,5.92,9.43,7.42l11.84,2.54c14.57,3.06,20.55,8.78,20.55,19.06v.06c0,13.66-12.55,22.64-30.51,22.64-19.32,0-30.05-8.91-31.55-22.12Z" />
        <path class="cls-4"
          d="M899.18,59.93v-.06c0-22.18,13.08-36.36,33.5-36.36s33.24,13.86,33.24,34.93v5.85h-48c.19,11.12,6.24,17.63,15.94,17.63,7.81,0,12.55-4.29,13.92-8.2l.13-.39h17.43l-.2.72c-2.15,10.28-11.77,22.05-31.68,22.05-21.34,0-34.28-13.86-34.28-36.17ZM918.11,52.32h29.6c-1.17-9.63-6.83-14.64-14.7-14.64s-13.66,5.2-14.9,14.64Z" />
      </g>
      <g>
        <path class="cls-4" d="M454.01,162.48h19.64v93.86h-19.64v-93.86Z" />
        <path class="cls-4"
          d="M487.64,186.61h18.99v11.45h.39c3.58-8,10.73-12.88,21.27-12.88,15.35,0,24.07,9.82,24.07,26.15v45.01h-18.99v-41.11c0-9.11-4.29-14.31-12.81-14.31s-13.92,6.24-13.92,15.35v40.07h-18.99v-69.73Z" />
        <path class="cls-4"
          d="M561.86,221.48v-.07c0-22.7,10.8-36.23,28.36-36.23,9.89,0,17.69,5.07,21.47,13.53h.39v-36.23h18.99v93.86h-18.99v-11.9h-.39c-3.71,8.26-11.38,13.33-21.47,13.33-17.56,0-28.36-13.66-28.36-36.3ZM612.14,221.48v-.07c0-12.55-6.38-20.49-15.55-20.49s-15.42,7.74-15.42,20.49v.07c0,12.68,5.92,20.56,15.42,20.56s15.55-7.94,15.55-20.56Z" />
        <path class="cls-4"
          d="M643.42,231.63v-45.01h18.99v41.05c0,9.11,4.29,14.38,12.81,14.38s13.92-6.24,13.92-15.35v-40.07h18.99v69.73h-18.99v-11.51h-.39c-3.58,8-10.73,12.94-21.27,12.94-15.35,0-24.07-9.82-24.07-26.15Z" />
        <path class="cls-4"
          d="M717.64,235.66l-.07-.59h18.54l.13.59c1.24,5.46,5.33,8.65,12.95,8.65,7.16,0,11.51-2.8,11.51-7.29v-.06c0-3.71-2.34-5.85-9.17-7.35l-11.84-2.47c-13.53-2.86-20.36-9.63-20.36-20.03v-.07c0-13.27,11.45-21.86,29.21-21.86s28.88,9.82,29.34,22.05v.65h-17.5l-.06-.52c-.65-5.01-4.75-8.78-11.77-8.78-6.57,0-10.67,2.93-10.67,7.42v.07c0,3.58,2.41,5.92,9.43,7.42l11.84,2.54c14.57,3.06,20.55,8.78,20.55,19.06v.06c0,13.66-12.55,22.64-30.51,22.64-19.32,0-30.05-8.91-31.55-22.12Z" />
        <path class="cls-4"
          d="M794,236.83v-35.91h-9.69v-14.31h9.69v-17.04h19.19v17.04h12.75v14.31h-12.75v33.83c0,6.5,2.93,8.72,8.65,8.72,1.69,0,2.93-.2,4.1-.33v13.92c-2.15.33-5.2.72-9.17.72-15.48,0-22.77-5.98-22.77-20.95Z" />
        <path class="cls-4"
          d="M836.42,186.61h18.99v12.16h.39c2.08-8.59,7.74-13.6,15.87-13.6,2.08,0,4.03.33,5.46.72v16.72c-1.56-.65-4.16-1.04-6.89-1.04-9.37,0-14.83,5.59-14.83,15.74v39.03h-18.99v-69.73Z" />
        <path class="cls-4"
          d="M884.61,167.75c0-5.4,4.42-9.89,10.15-9.89s10.15,4.49,10.15,9.89-4.42,9.89-10.15,9.89-10.15-4.49-10.15-9.89ZM885.26,186.61h18.99v69.73h-18.99v-69.73Z" />
        <path class="cls-4"
          d="M914.27,236.38v-.13c0-12.68,9.82-20.1,27.12-21.21l17.24-1.04v-4.29c0-6.18-4.03-10.02-11.45-10.02s-11.38,3.32-12.29,7.81l-.13.59h-17.37l.07-.78c1.04-12.88,12.1-22.12,30.51-22.12s29.66,9.3,29.66,23.35v47.81h-18.99v-10.41h-.39c-3.97,7.16-11.38,11.51-20.56,11.51-13.99,0-23.42-8.78-23.42-21.08ZM943.87,243.6c8.52,0,14.77-5.46,14.77-12.75v-5.01l-14.38.91c-7.35.46-11.19,3.58-11.19,8.52v.13c0,5.14,4.23,8.2,10.8,8.2Z" />
        <path class="cls-4" d="M990.31,162.48h18.99v93.86h-18.99v-93.86Z" />
        <path class="cls-4"
          d="M1047.16,209.38v-.06c0-30.25,17.3-48.46,44.69-48.46,22.77,0,39.09,14.38,40.92,34.28l.06.59h-19.12l-.26-1.11c-2.21-10.34-9.89-17.11-21.6-17.11-15.03,0-24.65,12.1-24.65,31.74v.07c0,19.77,9.63,32,24.65,32,11.32,0,19.25-6.5,21.79-17.63l.13-.65h19.12l-.07.72c-1.82,19.97-18.28,34.22-40.98,34.22-27.45,0-44.69-18.34-44.69-48.59Z" />
        <path class="cls-4"
          d="M1140.83,221.48v-.13c0-22.44,13.66-36.17,34.48-36.17s34.61,13.6,34.61,36.17v.13c0,22.77-13.46,36.3-34.54,36.3s-34.54-13.6-34.54-36.3ZM1190.59,221.48v-.13c0-13.47-6.05-21.27-15.29-21.27s-15.16,7.81-15.16,21.27v.13c0,13.66,5.92,21.4,15.29,21.4s15.16-7.81,15.16-21.4Z" />
        <path class="cls-4"
          d="M1219.67,186.61h18.99v12.16h.46c3.77-8.46,11.38-13.6,21.27-13.6,17.69,0,28.49,13.53,28.49,36.23v.07c0,22.64-10.8,36.3-28.23,36.3-9.95,0-17.82-5.07-21.6-13.33h-.39v34.67h-18.99v-92.5ZM1269.56,221.48v-.07c0-12.75-5.98-20.49-15.42-20.49s-15.55,7.94-15.55,20.56v.06c0,12.55,6.31,20.49,15.55,20.49s15.42-7.87,15.42-20.56Z" />
        <path class="cls-4"
          d="M1298.44,167.75c0-5.4,4.42-9.89,10.15-9.89s10.15,4.49,10.15,9.89-4.42,9.89-10.15,9.89-10.15-4.49-10.15-9.89ZM1299.09,186.61h18.99v69.73h-18.99v-69.73Z" />
        <path class="cls-4" d="M1331.22,162.48h18.99v93.86h-18.99v-93.86Z" />
        <path class="cls-4"
          d="M1360.49,221.48v-.13c0-22.44,13.66-36.17,34.48-36.17s34.61,13.6,34.61,36.17v.13c0,22.77-13.46,36.3-34.54,36.3s-34.54-13.6-34.54-36.3ZM1410.25,221.48v-.13c0-13.47-6.05-21.27-15.29-21.27s-15.16,7.81-15.16,21.27v.13c0,13.66,5.92,21.4,15.29,21.4s15.16-7.81,15.16-21.4Z" />
        <path class="cls-4"
          d="M1444.27,236.83v-35.91h-9.69v-14.31h9.69v-17.04h19.19v17.04h12.75v14.31h-12.75v33.83c0,6.5,2.93,8.72,8.65,8.72,1.69,0,2.93-.2,4.1-.33v13.92c-2.15.33-5.2.72-9.17.72-15.48,0-22.77-5.98-22.77-20.95Z" />
      </g>
    </g>
  </g>
</svg>